<svg xmlns="http://www.w3.org/2000/svg" viewBox="0 0 230.85 226.5"><defs><style>.cls-1{fill:#80c09b;}</style></defs><title>Asset 1</title><g id="Layer_2" data-name="Layer 2"><g id="Layer_1-2" data-name="Layer 1"><path class="cls-1" d="M124.64,134.61a70.21,70.21,0,0,1-18.47,0,67.1,67.1,0,0,0,9.23,12.57A66.25,66.25,0,0,0,124.64,134.61Z"/><path class="cls-1" d="M138.19,163.1a67.83,67.83,0,0,0,12.12,3.8c.23-2.3.34-4.65.34-7a66.54,66.54,0,0,0-5.23-26c-.65-1.58-1.39-3.12-2.15-4.62-.39.16-.77.35-1.16.5a67.16,67.16,0,0,1-15,4.39,68.81,68.81,0,0,1-10.35,14.34l.23.23A67.11,67.11,0,0,0,138.19,163.1Z"/><path class="cls-1" d="M129.91,128.38c-.54,1.23-1.08,2.46-1.65,3.65a65,65,0,0,0,13.12-4l1-.42a67.64,67.64,0,0,0-8.47-12A67.39,67.39,0,0,1,129.91,128.38Z"/><path class="cls-1" d="M120.87,98.47c-1.12.46-2.23,1-3.35,1.5a68.15,68.15,0,0,1,15,11.38l.08.07a68.89,68.89,0,0,0,.69-9.76c0-2.35-.12-4.69-.35-7A70.11,70.11,0,0,0,120.87,98.47Z"/><path class="cls-1" d="M144.15,126.76a67.07,67.07,0,0,0,29.59-27.87,9.63,9.63,0,0,0-1-.42,67.52,67.52,0,0,0-37.86-4.19,70.83,70.83,0,0,1-.58,19A65.86,65.86,0,0,1,144.15,126.76Z"/><path class="cls-1" d="M84,93.24a66.67,66.67,0,0,0-26,5.23l-1,.42a67.07,67.07,0,0,0,29.59,27.87,67.57,67.57,0,0,1,9.81-13.53,70.13,70.13,0,0,1-.57-19A66.55,66.55,0,0,0,84,93.24Z"/><path class="cls-1" d="M115.4,56.21a65.7,65.7,0,0,0-12.69,19.53,66.94,66.94,0,0,0-4.66,17,67.74,67.74,0,0,1,12.66,4c1.58.69,3.16,1.42,4.69,2.19,1.54-.77,3.08-1.5,4.7-2.19a70.84,70.84,0,0,1,12.66-4A66.56,66.56,0,0,0,115.4,56.21Z"/><path class="cls-1" d="M87.51,129.3c-.77,1.5-1.5,3-2.16,4.62a66.54,66.54,0,0,0-5.23,26c0,2.34.11,4.69.34,7a66.55,66.55,0,0,0,33.33-18.07l.23-.23a68.55,68.55,0,0,1-10.35-14.34,68.11,68.11,0,0,1-15-4.38C88.28,129.65,87.89,129.49,87.51,129.3Z"/><path class="cls-1" d="M115.4,133.26a67.85,67.85,0,0,0,10.43-.8c.81-1.58,1.58-3.2,2.27-4.85a64.25,64.25,0,0,0,4.12-13.76c-.35-.39-.73-.73-1.08-1.12A66.33,66.33,0,0,0,115.4,101a66.48,66.48,0,0,0-15.73,11.69c-.39.39-.73.73-1.08,1.12a66,66,0,0,0,4.12,13.76c.69,1.65,1.46,3.27,2.27,4.85A67.81,67.81,0,0,0,115.4,133.26Z"/><path class="cls-1" d="M164.16,168.33a66.52,66.52,0,0,0,47.18-19.5c.38-.38.73-.73,1.08-1.11A67.32,67.32,0,0,0,208.3,134a66.94,66.94,0,0,0-32.67-34.21,69.05,69.05,0,0,1-30.52,28.79c.77,1.54,1.5,3.08,2.2,4.66a69.61,69.61,0,0,1,5,34.1A67.13,67.13,0,0,0,164.16,168.33Z"/><path class="cls-1" d="M146.81,226.5a66.54,66.54,0,0,0,66.68-66.63,68.51,68.51,0,0,0-.69-9.77l-.08.08a68.44,68.44,0,0,1-48.52,20.07,66.71,66.71,0,0,1-12.12-1.08,67,67,0,0,1-4.77,17.34,69,69,0,0,1-29.71,33.18c1.08.54,2.19,1,3.35,1.5A64.39,64.39,0,0,0,146.81,226.5Z"/><path class="cls-1" d="M174.59,35.83a68,68,0,0,0-10.43-.8A66.62,66.62,0,0,0,117,54.52l-.23.23a68.63,68.63,0,0,1,13.16,20.19,67.77,67.77,0,0,1,4.77,17.34,70.05,70.05,0,0,1,12.13-1.08,68.15,68.15,0,0,1,26.7,5.38c.39.16.77.35,1.16.5.77-1.5,1.5-3,2.15-4.61a67,67,0,0,0,0-51.91C176.17,39,175.4,37.41,174.59,35.83Z"/><path class="cls-1" d="M141.38,5.23A66.77,66.77,0,0,0,68.23,19.49,67.82,67.82,0,0,0,57.38,33.68a67.29,67.29,0,0,1,9.23-.61,68,68,0,0,1,26.71,5.38,69.41,69.41,0,0,1,21.82,14.69l.19.19c.07-.08.11-.16.19-.19a70.33,70.33,0,0,1,21.9-14.65,68.23,68.23,0,0,1,26.7-5.39,67.44,67.44,0,0,1,9.24.62,67.13,67.13,0,0,0-10.85-14.19A65.13,65.13,0,0,0,141.38,5.23Z"/><path class="cls-1" d="M225.61,127.61a66.64,66.64,0,0,0-35.47-87.32,65.65,65.65,0,0,0-13.13-4c.58,1.19,1.16,2.42,1.66,3.65a68.73,68.73,0,0,1,0,53.36c-.66,1.58-1.39,3.16-2.2,4.66a68.78,68.78,0,0,1,33.6,35.18,67.4,67.4,0,0,1,4,12.72A65.41,65.41,0,0,0,225.61,127.61Z"/><path class="cls-1" d="M19.51,54.56A66.8,66.8,0,0,0,5.23,127.65,67.28,67.28,0,0,0,16.78,146a67.72,67.72,0,0,1,4-12.73,69.24,69.24,0,0,1,14.7-21.8A68.49,68.49,0,0,1,54.34,98c-.77-1.53-1.51-3.07-2.2-4.65a68.75,68.75,0,0,1,0-53.37c.54-1.23,1.08-2.46,1.66-3.65a65.68,65.68,0,0,0-13.13,4A65,65,0,0,0,19.51,54.56Z"/><path class="cls-1" d="M54,40.68a67,67,0,0,0,0,51.9c.65,1.58,1.39,3.12,2.16,4.62.38-.16.77-.35,1.15-.5A68.27,68.27,0,0,1,84,91.32a66.87,66.87,0,0,1,12.12,1.07A68.28,68.28,0,0,1,114,54.87l-.23-.23A66.94,66.94,0,0,0,56.18,36C55.41,37.41,54.64,39,54,40.68Z"/><path class="cls-1" d="M88.43,127.57a10.75,10.75,0,0,0,1,.43,65.56,65.56,0,0,0,13.12,4c-.57-1.19-1.15-2.42-1.65-3.65a68,68,0,0,1-4-12.73A68.71,68.71,0,0,0,88.43,127.57Z"/><path class="cls-1" d="M36.83,112.73a66.4,66.4,0,0,0-14.28,21.19,64.25,64.25,0,0,0-4.12,13.76c.35.39.73.73,1.08,1.12a66.57,66.57,0,0,0,47.18,19.49,67.92,67.92,0,0,0,11.89-1,69.15,69.15,0,0,1,5-34.1c.66-1.58,1.39-3.16,2.19-4.66A69.1,69.1,0,0,1,55.26,99.7,67.11,67.11,0,0,0,36.83,112.73Z"/><path class="cls-1" d="M131.14,207a66.74,66.74,0,0,0,18.94-38.14,68.25,68.25,0,0,1-12.66-4,69.19,69.19,0,0,1-21.82-14.69l-.2-.19c-.07.07-.11.15-.19.19a68.52,68.52,0,0,1-21.82,14.69,71.4,71.4,0,0,1-12.66,4,65.26,65.26,0,0,0,4.66,16.95,67,67,0,0,0,30,32.88A66.33,66.33,0,0,0,131.14,207Z"/><path class="cls-1" d="M97.47,101.7a67,67,0,0,0,.7,9.76l.07-.07a69.47,69.47,0,0,1,15-11.39c-1.08-.53-2.19-1-3.35-1.49A67.06,67.06,0,0,0,97.78,94.7C97.59,97,97.47,99.31,97.47,101.7Z"/><path class="cls-1" d="M18,150.1a68.93,68.93,0,0,0-.69,9.77A66.76,66.76,0,0,0,110,221.27c1.12-.46,2.23-1,3.35-1.5a68.63,68.63,0,0,1-34.48-50.52,70.93,70.93,0,0,1-12.12,1.08A68,68,0,0,1,40,164.94,69.33,69.33,0,0,1,18.2,150.26,1.15,1.15,0,0,0,18,150.1Z"/></g></g></svg>